<?xml version="1.0" encoding="UTF-8" standalone="no"?>
<!DOCTYPE svg PUBLIC "-//W3C//DTD SVG 1.1//EN" "http://www.w3.org/Graphics/SVG/1.1/DTD/svg11.dtd">
<svg width="100%" height="100%" viewBox="0 0 1080 1080" version="1.1" xmlns="http://www.w3.org/2000/svg" xmlns:xlink="http://www.w3.org/1999/xlink" xml:space="preserve" xmlns:serif="http://www.serif.com/" style="fill-rule:evenodd;clip-rule:evenodd;stroke-linejoin:round;stroke-miterlimit:2;">
    <g id="Layer1" transform="matrix(1.1532,0,0,1.1532,-82.7297,-82.7297)">
        <g transform="matrix(2.97927,0,-3.6143e-16,2.97927,886.86,901.08)">
            <path d="M13.645,-11.405C-23.192,32.038 -105.707,18.092 -134.541,-13.96C-111.2,-21.39 -91.294,-33.265 -74.495,-49.156C-70.522,-43.266 -65.602,-37.956 -59.736,-33.226C-41.552,-18.561 -19.359,-11.228 6.842,-11.228C9.144,-11.228 11.412,-11.287 13.645,-11.405Z" style="fill:rgb(140,183,98);"/>
        </g>
        <g transform="matrix(2.97927,0,-4.72639e-16,2.97927,506.338,306.429)">
            <path d="M-13.34,176.208C-16.881,169.809 -20.501,163.27 -24.304,156.4C-19.725,155.692 -16.179,155.144 -12.284,154.542C-14.727,151.065 -16.745,147.224 -19.711,144.181C-20.738,143.127 -66.708,138.609 -86.775,102.718C-101.905,75.655 -89.541,74.078 -87.245,73.785C-60.622,70.39 -21.358,86.334 -15.963,88.525C-31.11,71.715 -66.674,62.65 -81.665,56.043C-147.406,27.071 -108.935,-64.82 -93.339,-58.443C-43.324,-37.992 -20.5,15.242 -16.969,23.477C-3.381,0.623 -5.915,-1.451 14.381,-18.774C32.209,-33.991 35.127,0.364 35.33,2.759C38.278,37.476 13.992,50.839 -1.607,82.943C-6.422,92.852 -6.034,94.769 3.18,100.905C11.324,77.989 32.001,60.508 36.544,61.56C39.129,62.158 46.034,75.248 45.278,89.918C44.57,103.651 29.83,131.534 28.027,134.944C31.434,132.144 34.078,129.97 37.095,127.49C40.723,131.903 44.271,136.218 47.793,140.5C30.982,157.017 10.733,169.084 -13.34,176.208ZM0,118.83C0.805,113.892 3.209,113.122 -0.498,109.799C-3.618,107.002 -27.555,85.545 -50.097,92.977C-30.722,96.141 -14.651,105.704 0,118.83ZM-21.223,43.401C-19.152,41.445 -19.125,34.243 -19.997,33.076C-21.519,31.041 -29.7,20.101 -44.909,13.366C-49.781,11.208 -63.056,7.975 -64.655,7.586C-47.427,16.322 -33.493,28.725 -21.223,43.401Z" style="fill:rgb(140,183,98);"/>
        </g>
    </g>
</svg>
