<?xml version="1.0" encoding="UTF-8" standalone="no"?>
<!DOCTYPE svg PUBLIC "-//W3C//DTD SVG 1.1//EN" "http://www.w3.org/Graphics/SVG/1.1/DTD/svg11.dtd">
<svg width="100%" height="100%" viewBox="0 0 1080 1080" version="1.1" xmlns="http://www.w3.org/2000/svg" xmlns:xlink="http://www.w3.org/1999/xlink" xml:space="preserve" xmlns:serif="http://www.serif.com/" style="fill-rule:evenodd;clip-rule:evenodd;stroke-linejoin:round;stroke-miterlimit:2;">
    <g id="Logomark-Mono" serif:id="Logomark Mono" transform="matrix(1.2061,0,0,1.2061,-111.294,-111.294)">
        <g transform="matrix(0.608578,-4.92063e-17,4.92063e-17,0.608578,-967.548,-1393.98)">
            <g transform="matrix(453.312,0,0,453.312,2096.6,3623.68)">
                <path d="M0.322,0.014C0.264,0.014 0.215,0.003 0.175,-0.018C0.135,-0.04 0.104,-0.07 0.083,-0.11C0.062,-0.15 0.051,-0.197 0.051,-0.252C0.051,-0.309 0.063,-0.359 0.086,-0.402C0.109,-0.445 0.141,-0.478 0.185,-0.502C0.228,-0.526 0.279,-0.538 0.339,-0.538C0.384,-0.538 0.422,-0.531 0.455,-0.518C0.488,-0.505 0.513,-0.487 0.531,-0.466C0.549,-0.444 0.558,-0.421 0.558,-0.395C0.558,-0.38 0.555,-0.366 0.549,-0.354C0.543,-0.341 0.533,-0.331 0.521,-0.323C0.509,-0.315 0.493,-0.312 0.474,-0.312C0.449,-0.312 0.43,-0.317 0.417,-0.327C0.403,-0.337 0.397,-0.351 0.397,-0.369C0.397,-0.376 0.399,-0.384 0.403,-0.394C0.407,-0.404 0.413,-0.417 0.422,-0.434C0.411,-0.44 0.398,-0.445 0.385,-0.448C0.372,-0.451 0.357,-0.453 0.34,-0.453C0.315,-0.453 0.293,-0.447 0.274,-0.436C0.255,-0.424 0.24,-0.406 0.229,-0.382C0.218,-0.357 0.213,-0.325 0.213,-0.285C0.213,-0.221 0.226,-0.175 0.253,-0.146C0.28,-0.117 0.317,-0.103 0.365,-0.103C0.394,-0.103 0.42,-0.108 0.445,-0.117C0.469,-0.126 0.493,-0.138 0.518,-0.155L0.566,-0.092C0.54,-0.062 0.507,-0.037 0.467,-0.017C0.427,0.004 0.379,0.014 0.322,0.014Z" style="fill:rgb(22,21,18);fill-rule:nonzero;"/>
            </g>
            <g transform="matrix(453.312,0,0,453.312,2367,3623.68)">
                <path d="M0.217,0.014C0.166,0.014 0.126,0.001 0.097,-0.024C0.068,-0.049 0.053,-0.083 0.053,-0.125C0.053,-0.165 0.064,-0.197 0.085,-0.221C0.106,-0.244 0.14,-0.262 0.186,-0.273C0.233,-0.284 0.294,-0.29 0.369,-0.293L0.369,-0.361C0.369,-0.381 0.367,-0.399 0.362,-0.415C0.357,-0.431 0.347,-0.443 0.333,-0.452C0.319,-0.461 0.298,-0.466 0.271,-0.466C0.254,-0.466 0.237,-0.464 0.222,-0.46C0.206,-0.456 0.194,-0.451 0.185,-0.444C0.192,-0.434 0.197,-0.425 0.201,-0.417C0.205,-0.409 0.208,-0.402 0.21,-0.397C0.212,-0.391 0.213,-0.386 0.213,-0.382C0.213,-0.366 0.206,-0.353 0.192,-0.343C0.178,-0.333 0.158,-0.328 0.134,-0.328C0.109,-0.328 0.091,-0.334 0.079,-0.345C0.066,-0.357 0.06,-0.373 0.06,-0.393C0.06,-0.42 0.07,-0.444 0.091,-0.466C0.111,-0.488 0.139,-0.505 0.175,-0.518C0.211,-0.531 0.252,-0.537 0.298,-0.537C0.354,-0.537 0.398,-0.529 0.432,-0.514C0.466,-0.499 0.49,-0.477 0.505,-0.449C0.52,-0.42 0.528,-0.385 0.528,-0.345L0.528,-0.129C0.528,-0.115 0.531,-0.104 0.537,-0.096C0.543,-0.088 0.554,-0.084 0.57,-0.084C0.579,-0.084 0.587,-0.085 0.594,-0.086C0.601,-0.088 0.609,-0.09 0.617,-0.093L0.632,-0.031C0.618,-0.02 0.6,-0.009 0.577,-0C0.553,0.009 0.528,0.014 0.502,0.014C0.468,0.014 0.442,0.007 0.423,-0.009C0.404,-0.024 0.391,-0.044 0.386,-0.069C0.375,-0.053 0.362,-0.039 0.346,-0.027C0.33,-0.014 0.312,-0.004 0.291,0.003C0.269,0.01 0.245,0.014 0.217,0.014ZM0.279,-0.077C0.296,-0.077 0.312,-0.08 0.325,-0.087C0.339,-0.093 0.349,-0.102 0.357,-0.114C0.365,-0.126 0.369,-0.139 0.369,-0.155L0.369,-0.221C0.332,-0.221 0.302,-0.218 0.279,-0.213C0.256,-0.207 0.239,-0.199 0.228,-0.188C0.217,-0.176 0.211,-0.161 0.211,-0.143C0.211,-0.123 0.217,-0.107 0.229,-0.095C0.24,-0.083 0.257,-0.077 0.279,-0.077Z" style="fill:rgb(22,21,18);fill-rule:nonzero;"/>
            </g>
            <g transform="matrix(453.312,0,0,453.312,2653.72,3623.68)">
                <path d="M0.33,0.014C0.27,0.014 0.22,0.003 0.179,-0.019C0.137,-0.04 0.106,-0.071 0.084,-0.11C0.062,-0.149 0.051,-0.195 0.051,-0.247C0.051,-0.309 0.063,-0.362 0.088,-0.405C0.113,-0.448 0.147,-0.481 0.19,-0.504C0.234,-0.526 0.284,-0.538 0.341,-0.538C0.388,-0.538 0.429,-0.53 0.463,-0.514C0.497,-0.499 0.524,-0.476 0.542,-0.447C0.561,-0.418 0.57,-0.382 0.57,-0.34C0.57,-0.323 0.569,-0.306 0.568,-0.289C0.567,-0.272 0.564,-0.255 0.561,-0.238L0.216,-0.238C0.218,-0.208 0.225,-0.183 0.238,-0.163C0.251,-0.143 0.269,-0.128 0.291,-0.118C0.313,-0.108 0.339,-0.102 0.369,-0.103C0.401,-0.102 0.429,-0.107 0.455,-0.117C0.481,-0.127 0.506,-0.14 0.529,-0.158L0.58,-0.099C0.552,-0.066 0.517,-0.039 0.474,-0.018C0.431,0.003 0.383,0.014 0.33,0.014ZM0.216,-0.321L0.415,-0.321C0.416,-0.329 0.417,-0.337 0.417,-0.345C0.418,-0.352 0.418,-0.36 0.418,-0.367C0.418,-0.394 0.411,-0.415 0.396,-0.43C0.381,-0.445 0.36,-0.452 0.332,-0.453C0.309,-0.452 0.289,-0.447 0.273,-0.436C0.256,-0.425 0.243,-0.41 0.233,-0.39C0.224,-0.37 0.218,-0.347 0.216,-0.321Z" style="fill:rgb(22,21,18);fill-rule:nonzero;"/>
            </g>
            <g transform="matrix(453.312,0,0,453.312,2932.28,3623.68)">
                <path d="M0.055,-0L0.055,-0.075L0.102,-0.078C0.113,-0.079 0.12,-0.082 0.124,-0.089C0.128,-0.095 0.131,-0.108 0.131,-0.127L0.131,-0.376C0.131,-0.399 0.128,-0.414 0.124,-0.422C0.12,-0.43 0.11,-0.435 0.094,-0.436L0.046,-0.439L0.055,-0.518L0.248,-0.531L0.264,-0.522L0.273,-0.43L0.278,-0.43C0.296,-0.463 0.32,-0.489 0.349,-0.509C0.379,-0.528 0.412,-0.538 0.448,-0.538C0.486,-0.538 0.516,-0.528 0.537,-0.508C0.559,-0.488 0.57,-0.461 0.57,-0.428C0.57,-0.406 0.566,-0.388 0.56,-0.372C0.553,-0.357 0.543,-0.345 0.53,-0.337C0.517,-0.329 0.501,-0.325 0.482,-0.325C0.456,-0.325 0.437,-0.33 0.425,-0.341C0.413,-0.351 0.407,-0.364 0.407,-0.379C0.407,-0.384 0.408,-0.389 0.409,-0.394C0.41,-0.399 0.411,-0.404 0.414,-0.411C0.416,-0.418 0.42,-0.427 0.425,-0.437C0.409,-0.443 0.394,-0.443 0.378,-0.439C0.362,-0.435 0.347,-0.426 0.334,-0.414C0.32,-0.402 0.31,-0.387 0.302,-0.369C0.294,-0.351 0.29,-0.331 0.29,-0.309L0.29,-0.125C0.29,-0.108 0.291,-0.096 0.295,-0.089C0.299,-0.082 0.307,-0.078 0.32,-0.078L0.401,-0.074L0.401,-0L0.055,-0Z" style="fill:rgb(22,21,18);fill-rule:nonzero;"/>
            </g>
            <g transform="matrix(453.312,0,0,453.312,3199.51,3623.68)">
            </g>
        </g>
        <g transform="matrix(0.357434,-2.89001e-17,2.89001e-17,0.357434,-192.454,-668.371)">
            <g transform="matrix(453.312,0,0,453.312,2096.6,3623.68)">
                <path d="M0.23,-0L0.101,-0.386C0.096,-0.399 0.093,-0.409 0.089,-0.417C0.085,-0.425 0.081,-0.431 0.076,-0.435C0.07,-0.439 0.062,-0.441 0.052,-0.442L0.013,-0.446L0.025,-0.524L0.318,-0.524L0.318,-0.448L0.276,-0.446C0.264,-0.445 0.256,-0.441 0.254,-0.433C0.251,-0.425 0.253,-0.412 0.259,-0.395L0.338,-0.148L0.343,-0.148L0.449,-0.524L0.612,-0.524L0.721,-0.15L0.727,-0.15L0.802,-0.39C0.807,-0.408 0.808,-0.422 0.805,-0.43C0.801,-0.439 0.791,-0.444 0.776,-0.446L0.745,-0.45L0.755,-0.524L0.978,-0.524L0.978,-0.449L0.94,-0.445C0.927,-0.444 0.916,-0.439 0.908,-0.431C0.9,-0.422 0.891,-0.405 0.883,-0.381L0.761,-0L0.611,-0L0.503,-0.376L0.498,-0.376L0.396,-0L0.23,-0Z" style="fill:rgb(22,21,18);fill-rule:nonzero;"/>
            </g>
            <g transform="matrix(453.312,0,0,453.312,2542.21,3623.68)">
                <path d="M0.046,-0L0.046,-0.075L0.1,-0.078C0.113,-0.079 0.122,-0.083 0.126,-0.09C0.13,-0.096 0.132,-0.109 0.132,-0.128L0.132,-0.374C0.132,-0.395 0.13,-0.411 0.126,-0.42C0.122,-0.429 0.111,-0.434 0.093,-0.435L0.045,-0.438L0.053,-0.519L0.275,-0.531L0.291,-0.522L0.291,-0.125C0.291,-0.11 0.292,-0.099 0.295,-0.091C0.298,-0.083 0.307,-0.079 0.322,-0.078L0.376,-0.075L0.376,-0L0.046,-0ZM0.196,-0.606C0.165,-0.606 0.141,-0.614 0.123,-0.629C0.105,-0.644 0.096,-0.665 0.097,-0.691C0.096,-0.717 0.105,-0.737 0.123,-0.752C0.14,-0.767 0.165,-0.775 0.196,-0.775C0.227,-0.775 0.252,-0.768 0.269,-0.753C0.286,-0.738 0.295,-0.717 0.295,-0.691C0.295,-0.665 0.286,-0.644 0.268,-0.629C0.25,-0.614 0.226,-0.606 0.196,-0.606Z" style="fill:rgb(22,21,18);fill-rule:nonzero;"/>
            </g>
            <g transform="matrix(453.312,0,0,453.312,2716.96,3623.68)">
                <path d="M0.28,0.014C0.242,0.014 0.211,0.008 0.186,-0.005C0.161,-0.017 0.142,-0.035 0.131,-0.058C0.119,-0.081 0.113,-0.11 0.113,-0.143L0.113,-0.436L0.033,-0.436L0.033,-0.511C0.065,-0.515 0.091,-0.523 0.109,-0.535C0.127,-0.547 0.14,-0.564 0.149,-0.587C0.157,-0.61 0.164,-0.64 0.168,-0.677L0.254,-0.689L0.272,-0.68L0.272,-0.524L0.428,-0.524L0.428,-0.436L0.272,-0.436L0.272,-0.17C0.272,-0.146 0.276,-0.128 0.286,-0.114C0.295,-0.1 0.312,-0.093 0.337,-0.094C0.353,-0.093 0.368,-0.096 0.382,-0.101C0.397,-0.106 0.411,-0.114 0.426,-0.123L0.463,-0.058C0.44,-0.036 0.414,-0.019 0.383,-0.006C0.352,0.008 0.318,0.014 0.28,0.014Z" style="fill:rgb(22,21,18);fill-rule:nonzero;"/>
            </g>
            <g transform="matrix(453.312,0,0,453.312,2933.19,3623.68)">
                <path d="M0.052,-0L0.052,-0.075L0.098,-0.078C0.11,-0.079 0.117,-0.082 0.121,-0.088C0.125,-0.094 0.127,-0.106 0.127,-0.124L0.127,-0.614C0.127,-0.636 0.125,-0.652 0.12,-0.661C0.115,-0.669 0.103,-0.674 0.085,-0.675L0.038,-0.678L0.044,-0.758L0.271,-0.767L0.286,-0.756L0.286,-0.448L0.289,-0.448C0.306,-0.475 0.33,-0.497 0.361,-0.513C0.392,-0.529 0.428,-0.538 0.469,-0.538C0.51,-0.538 0.543,-0.53 0.57,-0.516C0.597,-0.501 0.617,-0.481 0.631,-0.455C0.644,-0.429 0.651,-0.399 0.651,-0.365L0.651,-0.118C0.651,-0.106 0.653,-0.096 0.656,-0.09C0.659,-0.083 0.669,-0.078 0.685,-0.077L0.729,-0.075L0.729,-0L0.43,-0L0.43,-0.075L0.461,-0.077C0.474,-0.078 0.482,-0.081 0.486,-0.087C0.49,-0.093 0.492,-0.104 0.492,-0.119L0.492,-0.32C0.492,-0.343 0.489,-0.362 0.484,-0.378C0.479,-0.393 0.47,-0.405 0.458,-0.413C0.445,-0.421 0.427,-0.425 0.404,-0.425C0.38,-0.425 0.36,-0.421 0.342,-0.412C0.324,-0.403 0.31,-0.39 0.301,-0.372C0.291,-0.354 0.286,-0.332 0.286,-0.305L0.286,-0.122C0.286,-0.108 0.288,-0.097 0.291,-0.09C0.295,-0.083 0.302,-0.079 0.313,-0.078L0.35,-0.075L0.35,-0L0.052,-0Z" style="fill:rgb(22,21,18);fill-rule:nonzero;"/>
            </g>
            <g transform="matrix(453.312,0,0,453.312,3276.8,3623.68)">
            </g>
        </g>
        <g transform="matrix(1.57643,0,0,1.57643,-3252.05,-5204.26)">
            <g transform="matrix(0.743567,0,-9.02056e-17,0.743567,2313.39,3845.43)">
                <path d="M13.645,-11.405C-23.192,32.038 -105.707,18.092 -134.541,-13.96C-111.2,-21.39 -91.294,-33.265 -74.495,-49.156C-70.522,-43.266 -65.602,-37.956 -59.736,-33.226C-41.552,-18.561 -19.359,-11.228 6.842,-11.228C9.144,-11.228 11.412,-11.287 13.645,-11.405Z" style="fill:rgb(22,21,18);"/>
            </g>
            <g transform="matrix(0.743567,0,-1.17961e-16,0.743567,2218.42,3697.02)">
                <path d="M-13.34,176.208C-16.881,169.809 -20.501,163.27 -24.304,156.4C-19.725,155.692 -16.179,155.144 -12.284,154.542C-14.727,151.065 -16.745,147.224 -19.711,144.181C-20.738,143.127 -66.708,138.609 -86.775,102.718C-101.905,75.655 -89.541,74.078 -87.245,73.785C-60.622,70.39 -21.358,86.334 -15.963,88.525C-31.11,71.715 -66.674,62.65 -81.665,56.043C-147.406,27.071 -108.935,-64.82 -93.339,-58.443C-43.324,-37.992 -20.5,15.242 -16.969,23.477C-3.381,0.623 -5.915,-1.451 14.381,-18.774C32.209,-33.991 35.127,0.364 35.33,2.759C38.278,37.476 13.992,50.839 -1.607,82.943C-6.422,92.852 -6.034,94.769 3.18,100.905C11.324,77.989 32.001,60.508 36.544,61.56C39.129,62.158 46.034,75.248 45.278,89.918C44.57,103.651 29.83,131.534 28.027,134.944C31.434,132.144 34.078,129.97 37.095,127.49C40.723,131.903 44.271,136.218 47.793,140.5C30.982,157.017 10.733,169.084 -13.34,176.208ZM0,118.83C0.805,113.892 3.209,113.122 -0.498,109.799C-3.618,107.002 -27.555,85.545 -50.097,92.977C-30.722,96.141 -14.651,105.704 0,118.83ZM-21.223,43.401C-19.152,41.445 -19.125,34.243 -19.997,33.076C-21.519,31.041 -29.7,20.101 -44.909,13.366C-49.781,11.208 -63.056,7.975 -64.655,7.586C-47.427,16.322 -33.493,28.725 -21.223,43.401Z" style="fill:rgb(22,21,18);"/>
            </g>
            <g transform="matrix(0.65694,0,0,0.65694,2227.76,3634.78)">
                <path d="M29.52,141.167C35.714,130.46 53.591,85.281 21.497,51.722C10.123,39.829 -11.458,60.955 -13.564,63.017C-17.976,67.336 -30.685,89.033 -32.054,91.37C-49.211,64.313 -45.959,61.477 -70.981,41.656C-87.238,28.778 -116.08,19.775 -129.096,-2.486C-170.069,-72.559 -134.379,-312.128 70.117,-311.165C129.83,-310.884 172.428,-286.77 181.721,-285.581C202.919,-282.868 203.045,-284.175 214.43,-280.116C249.348,-267.665 240.785,-245.528 243.604,-240.273C244.891,-237.875 286.49,-215.388 298.224,-155.685C299.73,-148.024 309.879,-96.381 278.89,-60.024C287.451,-96.909 283.52,-130.954 261.207,-161.755C268.533,-112.751 251.449,-50.652 250.831,-45.749C249.808,-35.868 256.519,-26.052 261.207,-17.556C266.459,-9.529 261.519,21.577 215.701,72.557C177.334,112.531 171.618,99 131.156,91.37C126.926,90.572 108.376,89.798 92.336,104.989C51.12,144.025 30.41,142.273 29.52,141.167ZM215.701,-247.139C220.533,-211.217 204.46,-172.279 201.954,-166.209C187.906,-132.178 159.835,-94.565 155.515,-88.776C170.177,-91.33 261.013,-176.303 215.701,-247.139ZM-36.547,-30.472C-25.486,-29.806 40.666,-25.826 98.553,-61.028C167.996,-103.258 187.65,-148.629 190.452,-212.555C183.949,-211.476 162.663,-77.315 -6.615,-45.749C-29.22,-41.534 -29.273,-43.211 -52.155,-42.579C-63.752,-42.259 -62.133,16.234 -22.221,31.619C-4.314,38.522 -3.874,34.44 15.095,31.651C17.403,31.312 28.51,37.788 29.618,38.434L14.68,9.344C-15.765,27.126 -44.445,1.556 -36.547,-30.472Z" style="fill:rgb(22,21,18);"/>
            </g>
        </g>
    </g>
</svg>
