<?xml version="1.0" encoding="UTF-8"?>
<svg id="a" data-name="Layer 4" xmlns="http://www.w3.org/2000/svg" viewBox="0 0 738 738">
  <defs>
    <style>
      .b {
        fill: #afac92;
        opacity: .33;
        stroke-width: 0px;
      }
    </style>
  </defs>
  <path class="b" d="m320.21,504.03c7.8-13.49,10.89-29.07,10.65-45.3-.27-18.89-5.2-36.28-18.12-50.74-4.45-4.97-6.31-5.45-12.36-2.37-12.36,6.3-21.6,16.08-29.21,27.39-4.76,7.08-8.73,14.7-12.54,21.22-5.8-9.15-11.42-19.3-18.28-28.54-11.98-16.15-27.81-28.08-45.79-36.7-18.9-9.06-32.74-22.32-39.11-42.49-2.7-8.54-5.14-17.29-6.46-26.13-6.12-41.08-1.23-81.17,11.92-120.38,8.8-26.24,21.24-50.64,37.88-72.8,23.95-31.9,55.13-53.48,93.22-65.28,30.14-9.34,60.83-12.15,92.18-8.96,28.74,2.92,56.1,10.54,82.09,23.17,1.81.88,4.06,1.11,6.12,1.15,15.04.31,29.49,2.93,43.03,9.92,12.66,6.55,18.87,16.73,18.06,30.94-.21,3.67.97,5.62,4.1,7.65,22.02,14.28,36.46,34.55,45.13,59.03,10.53,29.7,12.07,59.78,2.68,90.1-3.13,10.12-8.37,19.14-15.84,27.91,8.56-36.88,4.63-70.93-17.68-101.73.62,4.17,1.36,8.33,1.84,12.52.5,4.34,1.11,8.72,1.03,13.07-.28,16.34-.26,32.72-1.41,49.01-1.06,14.92-3.45,29.75-5.33,44.61-1.02,9.88,1.78,19.56,6.47,28.05,5.25,8.03,3.99,56.86-41.83,107.84-7.33,7.63-15.14,14.9-23.37,21.54-10.59,8.53-23.29,9.05-36.07,6.96-9.47-1.55-18.85-3.7-28.19-5.95-2.65-.64-3.72.08-5.04,2.15-4.69,7.36-5.59,15.75-6.24,24.03-2,25.3,2.72,49.28,15.7,71.29,3.34,5.66,7.39,10.91,11.29,16.63-8.93,1.97-17.81,1.76-26.68.59-21.54-2.85-41.1-11.18-59.72-21.98-4.96-2.88-9.68-6.18-14.65-9.04-2.38-1.37-2.71-2.98-2.3-5.52,2.27-13.84,1.04-27.25-6.48-39.4-2.91-4.7-6.88-8.73-10.72-13.49Zm-66.07-171.64c1.26.08,2.24.2,3.22.19,13.73-.16,27.57.68,41.18-.72,32.33-3.33,62.53-13.78,90.71-30.02,21.16-12.2,40.5-26.73,55.96-45.78,19.95-24.58,31.11-53.02,34.92-84.33.86-7.07.71-14.27,1.02-21.41-1.05.17-1.36.41-1.44.71-11.27,39.13-32.65,72.15-61.62,100.29-37.47,36.4-82.57,57.64-134,65.81-15.09,2.4-30.27,3.45-45.54,3.17-1.72-.03-3.45-.37-3.97,2.15-1.98,9.6-3.14,19.17-1.09,28.96,6.34,30.2,35.66,55.98,72.31,43.12,1.06-.37,2.66,0,3.73.56,3.44,1.8,6.75,3.86,10.8,6.22-5.25-10.23-10.07-19.61-14.94-29.09-13.65,7.97-27.08,9.27-39.69-.93-12.38-10.02-15.38-23.33-11.54-38.88Zm252.25-216.67c2.79,20.74-.41,41.11-5.53,58.05-9.46,31.26-25.13,59.38-43.91,85.89-3.46,4.89-7.15,9.62-10.74,14.43,1.37-.24,2.45-.79,3.44-1.47,26.64-18.35,46.84-42.17,60.07-71.68,8.02-17.88,11.64-36.56,8.18-56.21-1.84-10.45-5.77-20.05-11.49-29Zm-215.7,166.02c.18.3.35.59.53.89,23.56-6.06,46.21-14.2,66.99-27.36,21.33-13.51,44.46-44.07,47.07-54.9-38.2,27.13-76.4,54.25-114.59,81.38Z"/>
  <path class="b" d="m277.94,561.8c4.76-13.39,12.14-24.63,22.56-33.82,1.59-1.4,3.3-2.68,5.08-3.82,4.44-2.83,7.53-2.5,9.84,2.28,2.18,4.5,3.65,9.58,4.27,14.55,1.67,13.3-1.74,25.76-7.78,37.55-2.82,5.5-5.76,10.93-9.13,17.3,3.41-2.8,6.05-4.97,9.07-7.45,3.95,4.81,7.81,9.5,11.64,14.16-8.43,14.19-31.22,29-59.82,38.64-4.26-7.7-8.61-15.56-13.23-23.9,4.58-.71,8.12-1.26,12.02-1.86-2.52-3.59-4.78-7.14-7.43-10.36-.79-.96-2.65-1.2-4.07-1.43-18.78-3.04-35.97-9.6-49.79-23.14-10.49-10.27-17.94-22.38-20.31-37.16-.97-6.08.56-8.03,6.64-8.66,20.38-2.12,39.68,2.48,58.55,9.58,3.94,1.48,7.81,3.15,12.73,5.15-5.99-6.65-12.1-11.46-19.32-14.51-9.18-3.89-18.55-7.36-27.95-10.71-12.5-4.47-24.97-8.9-35.12-17.93-14.61-13-21.66-29.25-21.15-48.82.46-17.58,5.23-33.86,15.72-48.01,7.43-10.02,6.13-9.21,16.12-4.02,31.5,16.36,54.74,40.57,68.39,73.6.79,1.91,1.62,3.79,2.29,5.35,5.04-8.48,9.49-17.29,15.21-25.17,4.56-6.29,10.61-11.52,16.14-17.08,1.28-1.29,3.07-2.14,4.73-2.97,4.38-2.19,6.78-1.63,9.54,2.51,4.42,6.63,5.89,14.24,6.68,21.99,1.75,17.07-3.38,31.99-14.11,45.21-8.81,10.86-17.73,21.68-22.83,34.97-.27.7-.56,1.39-.82,2.09-3.46,9.38-3.26,9.97,5.61,15.87Zm-24.4-57.5c.41-.39.56-.46.58-.56.55-2.16,1.27-4.3,1.56-6.5.14-1.04-.25-2.45-.92-3.26-9.4-11.27-20.67-19.76-35.25-23.2-3.14-.74-6.28-1.52-9.41-2.29,17.23,8.74,31.16,21.14,43.43,35.82Zm21.22,75.43c.54-3.34,2.36-6.31-.5-9.03-6.74-6.42-14.09-11.87-23.07-14.84-9.64-3.19-20.25-4.05-26.53-1.98,19.37,3.16,35.45,12.73,50.1,25.85Z"/>
  <path class="b" d="m414,641.94c-35.31,54.37-100.61,58.53-139.24,13.78,23.56-8.79,45.6-19.81,62.03-40.49,18.91,28.02,43.79,38.71,77.21,26.71Z"/>
</svg>